<?xml version="1.0" encoding="UTF-8"?>
<svg version="1.1" xmlns="http://www.w3.org/2000/svg" width="1346" height="187">
<path d="M0 0 C21.18662315 -0.45361788 45.61791276 2.40120733 62.55859375 16.2890625 C70.00607415 24.09579057 73.02159661 33.68378039 73.0559082 44.31665039 C73.06645988 46.15864769 73.06645988 46.15864769 73.07722473 48.03785706 C73.08138901 49.35567673 73.08555328 50.6734964 73.08984375 52.03125 C73.10027527 53.40458439 73.11169905 54.77791156 73.12406921 56.15122986 C73.17636155 61.96903406 73.22454882 67.78670176 73.23999023 73.60473633 C73.25007173 77.1704354 73.27938844 80.73553199 73.32131004 84.30099297 C73.33958299 86.31500923 73.33697293 88.32917993 73.33406067 90.34327698 C73.35055161 91.56812302 73.36704254 92.79296906 73.3840332 94.05493164 C73.38989944 95.13239151 73.39576569 96.20985138 73.40180969 97.31996155 C74.04142056 100.81752089 75.08492841 102.01781011 77.9140625 104.12109375 C81.5815838 104.45527304 81.5815838 104.45527304 84.9140625 104.12109375 C84.83027344 103.33863281 84.74648438 102.55617188 84.66015625 101.75 C84.50740234 100.23212891 84.50740234 100.23212891 84.3515625 98.68359375 C84.24714844 97.67425781 84.14273438 96.66492188 84.03515625 95.625 C83.99519531 94.79871094 83.95523438 93.97242188 83.9140625 93.12109375 C84.9140625 92.12109375 84.9140625 92.12109375 86.85658264 92.00083923 C88.13232399 92.00417015 88.13232399 92.00417015 89.43383789 92.00756836 C90.87521873 92.00768166 90.87521873 92.00768166 92.34571838 92.00779724 C93.91288857 92.01553917 93.91288857 92.01553917 95.51171875 92.0234375 C96.57571396 92.02485245 97.63970917 92.0262674 98.73594666 92.02772522 C102.14951333 92.03334311 105.5630155 92.04589864 108.9765625 92.05859375 C111.28450426 92.06360644 113.59244705 92.06816975 115.90039062 92.07226562 C121.57163676 92.08331835 127.24284503 92.10007388 132.9140625 92.12109375 C133.10878143 92.74236649 133.30350037 93.36363922 133.50411987 94.0037384 C133.89629196 95.22355659 133.89629196 95.22355659 134.29638672 96.46801758 C134.55298065 97.27491531 134.80957458 98.08181305 135.07394409 98.91316223 C136.52266732 102.7205799 138.59758541 104.50301891 142.21875 106.203125 C150.77410033 108.63450876 159.98150324 109.31461836 168.26953125 105.62890625 C170.76006066 104.36310845 170.76006066 104.36310845 171.9140625 103.12109375 C172.33123529 100.70571537 172.33123529 100.70571537 171.9140625 98.12109375 C169.28077141 95.72699204 167.00536218 94.65723252 163.5546875 93.91015625 C162.69810547 93.72001953 161.84152344 93.52988281 160.95898438 93.33398438 C160.03666016 93.13998047 159.11433594 92.94597656 158.1640625 92.74609375 C157.20048828 92.53404297 156.23691406 92.32199219 155.24414062 92.10351562 C150.0457761 90.96877926 144.83599305 89.89958229 139.6171875 88.86328125 C102.20915596 81.4133146 102.20915596 81.4133146 92.0625 66.22265625 C86.25147092 55.58886834 86.35456291 42.59328682 89.5390625 31.12109375 C93.3042467 20.4946157 100.20795628 13.41613556 110.30078125 8.45703125 C122.59002254 3.06864648 135.5299363 0.70301228 148.9140625 0.12109375 C149.8421875 0.07984375 150.7703125 0.03859375 151.7265625 -0.00390625 C172.24910233 -0.45004842 195.33005518 3.12530427 210.9140625 17.55859375 C217.52857194 24.75247628 220.16374653 33.65837845 220.08203125 43.30078125 C219.9140625 45.12109375 219.9140625 45.12109375 218.9140625 46.12109375 C217.44051902 46.21413393 215.96255659 46.2385564 214.48608398 46.23461914 C213.54518417 46.23454361 212.60428436 46.23446808 211.63487244 46.23439026 C210.61196609 46.22922897 209.58905975 46.22406769 208.53515625 46.21875 C207.49335709 46.21733505 206.45155792 46.2159201 205.37818909 46.21446228 C202.03595156 46.20884455 198.69377993 46.19628905 195.3515625 46.18359375 C193.09179784 46.17858103 190.83203213 46.17401773 188.57226562 46.16992188 C183.01950859 46.15886936 177.46679025 46.14211399 171.9140625 46.12109375 C171.63272461 45.17266602 171.63272461 45.17266602 171.34570312 44.20507812 C171.08982422 43.38330078 170.83394531 42.56152344 170.5703125 41.71484375 C170.32087891 40.89693359 170.07144531 40.07902344 169.81445312 39.23632812 C169.05229658 36.87112977 169.05229658 36.87112977 166.4140625 35.62109375 C165.5890625 35.45609375 164.7640625 35.29109375 163.9140625 35.12109375 C162.9240625 34.79109375 161.9340625 34.46109375 160.9140625 34.12109375 C149.9172522 33.30958376 149.9172522 33.30958376 139.9140625 37.12109375 C138.60146669 39.03048144 138.60146669 39.03048144 138.9140625 41.12109375 C145.26782035 49.5202394 165.79356852 49.72514744 175.21826172 51.19482422 C191.22347504 53.77756729 207.40034545 57.87976143 217.9140625 71.12109375 C224.6656373 81.91576276 224.39137892 95.61317508 222.265625 107.85546875 C218.92882945 118.86404211 211.92110385 126.63760329 201.9140625 132.12109375 C175.94367631 144.21026585 144.47063948 144.72845157 117.40625 135.98828125 C106.68760362 131.84885515 98.03858673 126.14549111 90.9140625 117.12109375 C90.5840625 123.39109375 90.2540625 129.66109375 89.9140625 136.12109375 C73.40115808 142.36377713 53.9683567 144.40342802 37.37109375 136.984375 C32.82859927 134.63531994 29.20218997 132.04563299 25.9140625 128.12109375 C25.9140625 127.46109375 25.9140625 126.80109375 25.9140625 126.12109375 C25.05425781 126.64058594 24.19445312 127.16007812 23.30859375 127.6953125 C2.94039506 139.79828151 -18.28912219 144.47273887 -41.8359375 139.93359375 C-51.00745767 137.57770745 -59.35054434 133.92881726 -65.0859375 126.12109375 C-72.17800976 113.46588949 -72.74198502 100.07040156 -69.1171875 86.125 C-65.61722932 75.93004605 -57.59811157 68.08654885 -48.0234375 63.37109375 C-26.49356628 54.4776699 -2.97943422 54.69582589 19.9140625 54.12109375 C19.80450083 52.52650948 19.68062545 50.93290472 19.55078125 49.33984375 C19.48334717 48.45232422 19.41591309 47.56480469 19.34643555 46.65039062 C18.63647695 42.49727317 17.05264276 40.91094287 13.9140625 38.12109375 C7.98602153 34.94019372 -0.11857901 35.21034793 -6.5703125 36.69140625 C-10.25110687 37.96759408 -11.89116405 38.82893357 -14.0859375 42.12109375 C-14.4159375 43.77109375 -14.7459375 45.42109375 -15.0859375 47.12109375 C-32.2459375 47.12109375 -49.4059375 47.12109375 -67.0859375 47.12109375 C-67.0859375 35.10298477 -65.70723283 25.87245172 -57.0859375 17.12109375 C-41.20098263 3.53378414 -20.13368421 0.79005596 0 0 Z M-17.0859375 90.99609375 C-18.8586418 94.76309039 -18.55751006 98.42343252 -17.4609375 102.37109375 C-15.40776308 104.98422483 -13.13050914 105.83355294 -10.0859375 107.12109375 C-0.71970481 108.22939507 7.68746381 107.57574202 15.2890625 101.68359375 C18.77146983 98.28410088 19.83182585 96.57503776 20.109375 91.66796875 C20.08617187 90.415 20.06296875 89.16203125 20.0390625 87.87109375 C20.02101563 86.6078125 20.00296875 85.34453125 19.984375 84.04296875 C19.96117187 83.07875 19.93796875 82.11453125 19.9140625 81.12109375 C6.32727279 80.57110376 -6.75056341 81.30668054 -17.0859375 90.99609375 Z " fill="#262B32" transform="translate(635.0859375,45.87890625)"/>
<path d="M0 0 C22.11 0 44.22 0 67 0 C77.30520622 27.48054992 77.30520622 27.48054992 80.515625 36.37109375 C81.28895467 38.50415998 82.06231197 40.63721619 82.83569336 42.77026367 C83.22852509 43.85520111 83.62135681 44.94013855 84.02609253 46.05795288 C91.15564292 65.7446139 98.34423127 85.40829349 105.59527588 105.05050659 C108.20497093 112.12193643 110.80945071 119.19528897 113.41412354 126.26856995 C115.33886116 131.49462562 117.26552238 136.71994225 119.19873047 141.94287109 C120.81294739 146.3048902 122.41880023 150.66988203 124.01712036 155.03775024 C124.58240651 156.57784381 125.1509141 158.11675934 125.72286987 159.65438843 C126.48780287 161.71190843 127.24148147 163.77319286 127.9921875 165.8359375 C128.40839355 166.96563965 128.82459961 168.0953418 129.25341797 169.25927734 C130 172 130 172 129 175 C109.2 175 89.4 175 69 175 C66 167 66 167 62 151 C33.29 151.495 33.29 151.495 4 152 C0.535 163.385 0.535 163.385 -3 175 C-22.47 175 -41.94 175 -62 175 C-60.87494048 167.12458337 -60.87494048 167.12458337 -59.56738281 163.52001953 C-59.27402039 162.70119293 -58.98065796 161.88236633 -58.67840576 161.03872681 C-58.35656311 160.16227509 -58.03472046 159.28582336 -57.703125 158.3828125 C-57.36242981 157.43876556 -57.02173462 156.49471863 -56.67071533 155.52206421 C-55.53718386 152.38723341 -54.39371665 149.25612778 -53.25 146.125 C-52.44161819 143.89664362 -51.63368484 141.6681245 -50.82617188 139.43945312 C-43.91060967 120.3832148 -36.88508298 101.36712967 -29.85864258 82.3515625 C-22.00436745 61.08288627 -14.30285489 39.76046198 -6.66148376 18.41445923 C-4.46058926 12.26889185 -2.23090517 6.13498922 0 0 Z M32 54 C29.910659 61.0052337 27.82424166 68.01133103 25.74157715 75.01855278 C24.77447407 78.27207798 23.80635739 81.52529444 22.8359375 84.77783203 C21.72095464 88.51505952 20.61035634 92.2535827 19.5 95.9921875 C19.15001953 97.16304901 18.80003906 98.33391052 18.43945312 99.54025269 C18.11912109 100.62122223 17.79878906 101.70219177 17.46875 102.81591797 C17.04239258 104.24821243 17.04239258 104.24821243 16.60742188 105.70944214 C15.91455819 107.92724197 15.91455819 107.92724197 16 110 C26.89 110 37.78 110 49 110 C47.5201953 102.33700969 47.5201953 102.33700969 45.61132812 94.85742188 C45.35766479 93.98371948 45.10400146 93.11001709 44.84265137 92.20983887 C44.57488892 91.30527954 44.30712646 90.40072021 44.03125 89.46875 C43.75027466 88.51101685 43.46929932 87.55328369 43.17980957 86.56652832 C42.59035467 84.56257811 41.99865342 82.55928738 41.40478516 80.55664062 C40.49489968 77.48276957 39.59674152 74.40562544 38.69921875 71.328125 C38.12309961 69.37479229 37.54630122 67.42165976 36.96875 65.46875 C36.70098755 64.54799683 36.4332251 63.62724365 36.15734863 62.67858887 C35.9036853 61.83010376 35.65002197 60.98161865 35.38867188 60.10742188 C35.05796692 58.98684387 35.05796692 58.98684387 34.72058105 57.84362793 C34.06167349 55.79421999 34.06167349 55.79421999 32 54 Z " fill="#262B32" transform="translate(1072,9)"/>
<path d="M0 0 C1.01775513 -0.00315216 2.03551025 -0.00630432 3.08410645 -0.009552 C4.19137085 -0.00752777 5.29863525 -0.00550354 6.43945312 -0.00341797 C7.56766479 -0.00437469 8.69587646 -0.00533142 9.85827637 -0.00631714 C12.24910538 -0.00699915 14.63993624 -0.00514344 17.03076172 -0.00097656 C20.70479464 0.00437137 24.37870529 -0.0009209 28.05273438 -0.00732422 C30.3691409 -0.00666344 32.68554734 -0.00538229 35.00195312 -0.00341797 C36.66284973 -0.00645432 36.66284973 -0.00645432 38.3572998 -0.009552 C39.37505493 -0.00639984 40.39281006 -0.00324768 41.44140625 0 C42.79256531 0.00119339 42.79256531 0.00119339 44.17102051 0.00241089 C46.22070312 0.12939453 46.22070312 0.12939453 47.22070312 1.12939453 C47.31451615 2.97057483 47.33814267 4.81537094 47.33422852 6.65893555 C47.33415298 7.84008438 47.33407745 9.02123322 47.33399963 10.23817444 C47.32883835 11.52356613 47.32367706 12.80895782 47.31835938 14.13330078 C47.31694443 15.44145248 47.31552948 16.74960419 47.31407166 18.09739685 C47.31024722 21.58102312 47.30041759 25.06460793 47.28936768 28.54821777 C47.27915195 32.10066161 47.27457369 35.65311213 47.26953125 39.20556641 C47.25879525 46.18019285 47.24171972 53.1547917 47.22070312 60.12939453 C47.94660645 59.65671143 48.67250977 59.18402832 49.42041016 58.69702148 C50.38833496 58.0727124 51.35625977 57.44840332 52.35351562 56.80517578 C53.30629395 56.18811768 54.25907227 55.57105957 55.24072266 54.93530273 C70.04923497 45.96114531 86.94821016 44.24471982 103.68945312 47.88330078 C113.58020441 50.86800982 121.34530428 56.60290108 127.22070312 65.12939453 C134.86720836 79.59302215 134.49806573 94.28720149 134.41601562 110.20361328 C134.41227994 112.34023404 134.4094356 114.47685652 134.40744019 116.61347961 C134.39984743 122.2045881 134.38023686 127.79559071 134.35803223 133.38665771 C134.33747939 139.10492522 134.32841838 144.82321002 134.31835938 150.54150391 C134.29698646 161.73751366 134.26290378 172.93344525 134.22070312 184.12939453 C126.83342211 184.15466146 119.44615215 184.17222614 112.05883789 184.18432617 C109.54353418 184.18936816 107.02823341 184.19620156 104.51293945 184.20483398 C100.90640538 184.21690547 97.2999099 184.22262402 93.69335938 184.22705078 C91.99494652 184.23479271 91.99494652 184.23479271 90.26222229 184.24269104 C88.70071693 184.24280434 88.70071693 184.24280434 87.10766602 184.24291992 C86.18611221 184.24514053 85.26455841 184.24736115 84.31507874 184.24964905 C82.22070312 184.12939453 82.22070312 184.12939453 81.22070312 183.12939453 C81.11152127 180.48369596 81.06647516 177.86314382 81.06298828 175.21655273 C81.05790756 174.3872374 81.05282684 173.55792206 81.04759216 172.70347595 C81.03686318 170.8957304 81.02825299 169.08797136 81.02147293 167.28020668 C81.00971473 164.41778686 80.99026822 161.55552003 80.96835327 158.69316101 C80.90664602 150.55224717 80.85274005 142.41134659 80.81933594 134.27026367 C80.79837219 129.29582256 80.76304923 124.3216561 80.71857834 119.34737206 C80.70442506 117.45163397 80.69569742 115.55584724 80.69252396 113.66005898 C80.68760688 111.00281771 80.66442661 108.34630238 80.63720703 105.68920898 C80.64021317 104.90818817 80.6432193 104.12716736 80.64631653 103.32247925 C80.57331972 98.51598919 79.77216657 95.20993967 77.22070312 91.12939453 C73.74520021 87.90819671 70.98498053 86.84318612 66.34570312 86.62939453 C61.29166634 86.85773957 57.27823842 88.06515887 53.22070312 91.12939453 C48.76809357 96.72369884 48.06928946 101.13014793 48.03125 108.07324219 C48.0229567 108.88162033 48.01466339 109.68999847 48.00611877 110.52287292 C47.98872513 112.27765577 47.97355643 114.03246174 47.96034241 115.78728104 C47.93932573 118.56026548 47.91230419 121.33313305 47.88366699 124.10604858 C47.81381368 130.990623 47.75434002 137.87528011 47.69464111 144.75994873 C47.64379826 150.58009219 47.58901179 156.40017173 47.52882385 162.22022629 C47.50216106 164.95959348 47.48140303 167.69896637 47.46081543 170.43838501 C47.44422085 172.10703825 47.42734976 173.77568876 47.41015625 175.44433594 C47.40597183 176.21213882 47.40178741 176.97994171 47.3974762 177.77101135 C47.33455165 183.015546 47.33455165 183.015546 46.22070312 184.12939453 C44.59395535 184.22279887 42.96316261 184.24684624 41.33374023 184.24291992 C40.29273666 184.24284439 39.25173309 184.24276886 38.17918396 184.24269104 C37.04690872 184.23752975 35.91463348 184.23236847 34.74804688 184.22705078 C33.01887779 184.22492836 33.01887779 184.22492836 31.254776 184.22276306 C27.55589249 184.21714458 23.85706848 184.20458895 20.15820312 184.19189453 C17.65755295 184.18688191 15.15690184 184.18231859 12.65625 184.17822266 C6.51104724 184.16716915 0.36587943 184.15041305 -5.77929688 184.12939453 C-5.80262315 160.2864306 -5.82027471 136.44346837 -5.83110905 112.60049534 C-5.83627258 101.53061607 -5.84331637 90.46074387 -5.85473633 79.39086914 C-5.86468141 69.74608399 -5.87114988 60.10130396 -5.87338537 50.45651382 C-5.87469278 45.34632892 -5.87778051 40.23615868 -5.88502693 35.12597847 C-5.89178438 30.32196894 -5.8939144 25.5179802 -5.89240456 20.71396637 C-5.89268101 18.9454099 -5.89468776 17.17685278 -5.89850235 15.4083004 C-5.90343531 13.0045198 -5.90229665 10.60081896 -5.89955139 8.19703674 C-5.90246423 7.48790605 -5.90537707 6.77877535 -5.90837818 6.04815584 C-5.89075036 0.38673946 -5.58445989 0.00493239 0 0 Z " fill="#262B32" transform="translate(872.779296875,-0.12939453125)"/>
<path d="M0 0 C12.97374803 11.12538501 18.37486089 24.25697785 21.12890625 40.78125 C21.12890625 49.03125 21.12890625 57.28125 21.12890625 65.78125 C-27.38109375 66.27625 -27.38109375 66.27625 -76.87109375 66.78125 C-75.09473517 78.43908126 -75.09473517 78.43908126 -68.22265625 87.125 C-61.14532208 91.30570373 -51.85512157 91.57903647 -43.93359375 90.09375 C-38.98273741 88.73112899 -35.2574148 86.55000445 -32.05859375 82.46875 C-30.63773506 79.25312244 -30.27236524 76.25893627 -29.87109375 72.78125 C-28.87109375 71.78125 -28.87109375 71.78125 -26.85264587 71.66099548 C-25.96662186 71.66321609 -25.08059784 71.66543671 -24.16772461 71.66772461 C-23.16676254 71.66780014 -22.16580048 71.66787567 -21.13450623 71.66795349 C-20.04597855 71.67311478 -18.95745087 71.67827606 -17.8359375 71.68359375 C-16.17335655 71.68571617 -16.17335655 71.68571617 -14.47718811 71.68788147 C-10.92096306 71.69349967 -7.36479992 71.70605525 -3.80859375 71.71875 C-1.40429778 71.72376266 0.99999917 71.72832597 3.40429688 71.73242188 C9.31252129 71.74347501 15.22070935 71.76023083 21.12890625 71.78125 C21.16981286 73.82014163 21.19868291 75.85927647 21.22265625 77.8984375 C21.24005859 79.03394043 21.25746094 80.16944336 21.27539062 81.33935547 C20.83721912 91.6349253 15.98597653 100.30290154 9.12890625 107.78125 C-11.38975232 125.9993317 -38.83983095 126.8358053 -64.87109375 125.78125 C-84.21886038 124.2366078 -102.46450091 117.06807369 -115.87109375 102.78125 C-129.4856111 85.37903619 -131.75822867 63.737501 -129.63232422 42.3828125 C-127.62310926 27.28887475 -122.36385066 14.15276233 -110.87109375 3.78125 C-110.35675781 3.25144531 -109.84242188 2.72164062 -109.3125 2.17578125 C-83.4465878 -23.02262353 -27.44369685 -21.20819022 0 0 Z M-72.87109375 27.78125 C-75.82160356 33.00005237 -75.82160356 33.00005237 -76.87109375 38.78125 C-62.02109375 38.78125 -47.17109375 38.78125 -31.87109375 38.78125 C-32.95738987 30.079398 -32.95738987 30.079398 -37.87109375 23.78125 C-48.49377342 16.00855756 -64.06370763 18.57352814 -72.87109375 27.78125 Z " fill="#262B32" transform="translate(540.87109375,61.21875)"/>
<path d="M0 0 C12.97471593 -0.58532553 25.79636482 2.58224354 35.765625 10.90625 C46.11536474 20.59801659 49.6103169 33.54208409 50.1701088 47.43991089 C50.20671951 49.82963503 50.21337415 52.21742695 50.20751953 54.60742188 C50.21014801 55.95297653 50.21014801 55.95297653 50.21282959 57.32571411 C50.21719308 60.2588297 50.21433167 63.19188392 50.2109375 66.125 C50.21161165 68.17240409 50.2125826 70.2198081 50.21383667 72.26721191 C50.21530576 76.54045378 50.21318271 80.81367465 50.20849609 85.08691406 C50.20277028 90.57612507 50.20610071 96.06528749 50.21206856 101.55449677 C50.21567086 105.77335989 50.21453762 109.99221136 50.21194077 114.21107483 C50.21127207 116.23657741 50.21209793 118.26208104 50.21442032 120.2875824 C50.21694451 123.10516195 50.21311091 125.92266087 50.20751953 128.74023438 C50.20954376 129.58276764 50.21156799 130.4253009 50.21365356 131.29336548 C50.19239361 137.04198139 50.19239361 137.04198139 49.078125 138.15625 C47.45137722 138.24965434 45.82058449 138.27370171 44.19116211 138.26977539 C43.15015854 138.26969986 42.10915497 138.26962433 41.03660583 138.26954651 C39.9043306 138.26438522 38.77205536 138.25922394 37.60546875 138.25390625 C35.87629967 138.25178383 35.87629967 138.25178383 34.11219788 138.24961853 C30.41331436 138.24400005 26.71449036 138.23144442 23.015625 138.21875 C20.51497483 138.21373738 18.01432371 138.20917406 15.51367188 138.20507812 C9.36846912 138.19402462 3.22330131 138.17726852 -2.921875 138.15625 C-2.92330002 137.08407227 -2.92472504 136.01189453 -2.92619324 134.90722656 C-2.94288932 124.78480441 -2.98574275 114.66278292 -3.05396557 104.54057312 C-3.08820272 99.33704913 -3.11334049 94.13381772 -3.11743164 88.93017578 C-3.12172156 83.9048628 -3.15024215 78.88020947 -3.19530678 73.85510254 C-3.20825955 71.94148608 -3.21259735 70.02779059 -3.20802879 68.11413574 C-3.20310693 65.42563344 -3.22928414 62.73904743 -3.26245117 60.05078125 C-3.24951271 58.87365318 -3.24951271 58.87365318 -3.23631287 57.67274475 C-3.35743682 51.78566595 -5.2010668 47.72339933 -8.921875 43.15625 C-13.02666499 40.41972334 -18.13697319 40.51028826 -22.921875 41.15625 C-28.15671284 42.8612588 -32.07727362 45.3423092 -34.921875 50.15625 C-36.55985753 55.69293873 -37.2234484 60.65623938 -37.24072266 66.40820312 C-37.25579109 67.58038391 -37.25579109 67.58038391 -37.27116394 68.77624512 C-37.30177411 71.32999003 -37.31896868 73.88363121 -37.3359375 76.4375 C-37.35466704 78.21969481 -37.37424176 80.00188093 -37.3946228 81.78405762 C-37.44576146 86.45282847 -37.48548448 91.12162802 -37.52276611 95.79052734 C-37.56999273 101.40415815 -37.63151171 107.01764862 -37.69061279 112.63116455 C-37.77860215 121.13946915 -37.84852586 129.64774989 -37.921875 138.15625 C-55.081875 138.15625 -72.241875 138.15625 -89.921875 138.15625 C-89.94442156 120.70208964 -89.9628539 103.24794165 -89.97368717 85.79377079 C-89.97885025 77.69006391 -89.98589316 69.58636669 -89.99731445 61.48266602 C-90.00726094 54.42202878 -90.01372834 47.36139854 -90.01596349 40.30075449 C-90.01727066 36.55990542 -90.02035689 32.81907638 -90.02760506 29.07823372 C-90.03561824 24.90899887 -90.03586616 20.73979916 -90.03540039 16.57055664 C-90.03899567 15.32115295 -90.04259094 14.07174927 -90.04629517 12.78448486 C-90.0449205 11.65561356 -90.04354584 10.52674225 -90.04212952 9.36366272 C-90.04305131 8.37642243 -90.0439731 7.38918215 -90.04492283 6.37202549 C-89.921875 4.15625 -89.921875 4.15625 -88.921875 3.15625 C-85.81936299 3.06750865 -82.7391938 3.04106545 -79.63671875 3.05859375 C-78.70589981 3.0600087 -77.77508087 3.06142365 -76.8160553 3.06288147 C-73.83046309 3.06849828 -70.84494471 3.0810536 -67.859375 3.09375 C-65.84049587 3.09876284 -63.82161557 3.10332612 -61.80273438 3.10742188 C-56.84241928 3.11847317 -51.88215968 3.13574905 -46.921875 3.15625 C-44.7265625 11.90625 -44.7265625 11.90625 -43.796875 16.15625 C-43.54550781 17.3009375 -43.54550781 17.3009375 -43.2890625 18.46875 C-43.10730469 19.3040625 -43.10730469 19.3040625 -42.921875 20.15625 C-42.48359375 19.65996094 -42.0453125 19.16367188 -41.59375 18.65234375 C-30.4042233 6.66681413 -16.08790018 1.30795936 0 0 Z " fill="#262B32" transform="translate(280.921875,45.84375)"/>
<path d="M0 0 C18.81 0 37.62 0 57 0 C57 57.75 57 115.5 57 175 C38.19 175 19.38 175 0 175 C-1.8878954 173.1121046 -1.12624134 169.82613257 -1.12698364 167.31872559 C-1.12854363 166.61212217 -1.13010362 165.90551875 -1.13171089 165.17750311 C-1.13572325 162.79214278 -1.13253035 160.40684526 -1.12939453 158.02148438 C-1.13074847 156.31854719 -1.13252836 154.61561029 -1.13470459 152.91267395 C-1.13927983 148.27437694 -1.13748899 143.63610206 -1.1343255 138.99780464 C-1.13180237 134.15490787 -1.13413931 129.31201305 -1.13571167 124.46911621 C-1.1375335 116.33471332 -1.1351267 108.20031949 -1.13037109 100.06591797 C-1.12492845 90.64728427 -1.12669109 81.22867222 -1.1321975 71.81003904 C-1.13672824 63.73873061 -1.13737937 55.6674287 -1.13475883 47.5961194 C-1.13319584 42.76876247 -1.13300289 37.94141573 -1.13629532 33.11405945 C-1.13917347 28.57678395 -1.13719938 24.03953648 -1.13140106 19.50226402 C-1.13007316 17.83207432 -1.13046808 16.16188228 -1.13266373 14.4916935 C-1.13537407 12.2215214 -1.13199556 9.95144061 -1.12698364 7.68127441 C-1.12660662 6.40773354 -1.12622959 5.13419266 -1.12584114 3.82205963 C-1 1 -1 1 0 0 Z " fill="#262B32" transform="translate(1211,9)"/>
<path d="M0 0 C1.01775513 -0.00315216 2.03551025 -0.00630432 3.08410645 -0.009552 C4.19137085 -0.00752777 5.29863525 -0.00550354 6.43945312 -0.00341797 C7.56766479 -0.00437469 8.69587646 -0.00533142 9.85827637 -0.00631714 C12.24910538 -0.00699915 14.63993624 -0.00514344 17.03076172 -0.00097656 C20.70479464 0.00437137 24.37870529 -0.0009209 28.05273438 -0.00732422 C30.3691409 -0.00666344 32.68554734 -0.00538229 35.00195312 -0.00341797 C36.66284973 -0.00645432 36.66284973 -0.00645432 38.3572998 -0.009552 C39.37505493 -0.00639984 40.39281006 -0.00324768 41.44140625 0 C42.79256531 0.00119339 42.79256531 0.00119339 44.17102051 0.00241089 C46.22070312 0.12939453 46.22070312 0.12939453 47.22070312 1.12939453 C47.31834284 3.49486972 47.350676 5.83110388 47.34095764 8.19703674 C47.34181207 8.94518125 47.34266649 9.69332576 47.34354681 10.46414131 C47.34520385 12.99003401 47.3396766 15.51586139 47.33422852 18.04174805 C47.33394667 19.84482827 47.33410433 21.64790861 47.33467102 23.45098877 C47.33495908 28.36193992 47.32906096 33.27286687 47.32209706 38.18381238 C47.31586496 43.31011665 47.31525984 48.43642141 47.31407166 53.56272888 C47.31095791 63.27730079 47.30274395 72.9918615 47.29272217 82.70642847 C47.28156235 93.7630717 47.27605091 104.81971546 47.27102673 115.87636292 C47.26056137 138.62737967 47.24296111 161.37838648 47.22070312 184.12939453 C39.83342211 184.15466146 32.44615215 184.17222614 25.05883789 184.18432617 C22.54353418 184.18936816 20.02823341 184.19620156 17.51293945 184.20483398 C13.90640538 184.21690547 10.2999099 184.22262402 6.69335938 184.22705078 C4.99494652 184.23479271 4.99494652 184.23479271 3.26222229 184.24269104 C2.22121872 184.24276657 1.18021515 184.2428421 0.10766602 184.24291992 C-1.27466469 184.24625084 -1.27466469 184.24625084 -2.68492126 184.24964905 C-4.77929688 184.12939453 -4.77929688 184.12939453 -5.77929688 183.12939453 C-5.87914062 180.77882245 -5.91372452 178.45757926 -5.90628052 176.10644531 C-5.90784051 175.36308992 -5.9094005 174.61973454 -5.91100776 173.85385323 C-5.91502051 171.34411811 -5.91182707 168.83444268 -5.90869141 166.32470703 C-5.91004533 164.53310104 -5.9118252 162.74149532 -5.91400146 160.94989014 C-5.91857691 156.06986565 -5.91678578 151.18986221 -5.91362238 146.30983734 C-5.91109935 141.21469565 -5.91343616 136.11955582 -5.91500854 131.02441406 C-5.91683041 122.46630529 -5.91442349 113.90820513 -5.90966797 105.35009766 C-5.90422532 95.44068016 -5.90598796 85.53128323 -5.91149437 75.62186623 C-5.91602503 67.1301792 -5.91667629 58.63849838 -5.91405571 50.14681053 C-5.91249267 45.06794268 -5.91229989 39.98908452 -5.91559219 34.91021729 C-5.91847022 30.13655886 -5.91649649 25.36292708 -5.91069794 20.58927155 C-5.90936997 18.83200373 -5.90976507 17.07473368 -5.9119606 15.31746674 C-5.91467067 12.9290616 -5.91129276 10.54074327 -5.90628052 8.15234375 C-5.90851124 7.44778612 -5.91074196 6.74322849 -5.91304028 6.01732063 C-5.8898693 0.37193711 -5.56551232 0.00491565 0 0 Z " fill="#262B32" transform="translate(352.779296875,-0.12939453125)"/>
<path d="M0 0 C0.72030396 -0.00175232 1.44060791 -0.00350464 2.18273926 -0.00531006 C4.57497534 -0.00972835 6.9671381 -0.00679068 9.359375 -0.00341797 C11.01464858 -0.00409101 12.66992207 -0.00506105 14.32519531 -0.00631714 C17.79883767 -0.00779408 21.27245437 -0.00563968 24.74609375 -0.00097656 C29.20869998 0.00472073 33.67124608 0.0014417 38.1338501 -0.00454903 C41.5532273 -0.00815474 44.97259015 -0.00701601 48.39196777 -0.00442123 C50.03788256 -0.00375199 51.68379863 -0.00458029 53.32971191 -0.00690079 C55.62609331 -0.00942749 57.92237599 -0.0055865 60.21875 0 C61.52811523 0.00079559 62.83748047 0.00159119 64.18652344 0.00241089 C67.109375 0.12939453 67.109375 0.12939453 68.109375 1.12939453 C68.20868033 3.11826947 68.23736962 5.1106987 68.23876953 7.10205078 C68.24192169 8.38007568 68.24507385 9.65810059 68.24832153 10.97485352 C68.24653175 12.3805342 68.2444808 13.78621458 68.2421875 15.19189453 C68.24286058 16.62296566 68.24383064 18.05403668 68.24508667 19.48510742 C68.24656344 22.48796678 68.24440976 25.49079643 68.23974609 28.49365234 C68.23404881 32.35092024 68.23732792 36.20811857 68.24331856 40.06538391 C68.24692474 43.02153044 68.24578532 45.97766036 68.24319077 48.93380737 C68.24252165 50.35643522 68.24334937 51.77906456 68.24567032 53.20169067 C68.24819774 55.18670627 68.24366542 57.17172712 68.23876953 59.15673828 C68.23797394 60.28845459 68.23717834 61.4201709 68.23635864 62.58618164 C68.109375 65.12939453 68.109375 65.12939453 67.109375 66.12939453 C64.81426004 66.22910608 62.51602951 66.2573932 60.21875 66.25878906 C59.49844604 66.26054138 58.77814209 66.2622937 58.03601074 66.26409912 C55.64377466 66.26851742 53.2516119 66.26557974 50.859375 66.26220703 C49.20410142 66.26288008 47.54882793 66.26385011 45.89355469 66.2651062 C42.41991233 66.26658314 38.94629563 66.26442874 35.47265625 66.25976562 C31.01005002 66.25406833 26.54750392 66.25734736 22.0848999 66.26333809 C18.6655227 66.2669438 15.24615985 66.26580507 11.82678223 66.2632103 C10.18086744 66.26254106 8.53495137 66.26336935 6.88903809 66.26568985 C4.59265669 66.26821655 2.29637401 66.26437557 0 66.25878906 C-1.96404785 66.25759567 -1.96404785 66.25759567 -3.96777344 66.25637817 C-6.890625 66.12939453 -6.890625 66.12939453 -7.890625 65.12939453 C-7.98993033 63.14051959 -8.01861962 61.14809036 -8.02001953 59.15673828 C-8.02317169 57.87871338 -8.02632385 56.60068848 -8.02957153 55.28393555 C-8.02778175 53.87825486 -8.0257308 52.47257449 -8.0234375 51.06689453 C-8.02411058 49.6358234 -8.02508064 48.20475238 -8.02633667 46.77368164 C-8.02781344 43.77082229 -8.02565976 40.76799263 -8.02099609 37.76513672 C-8.01529881 33.90786882 -8.01857792 30.05067049 -8.02456856 26.19340515 C-8.02817474 23.23725862 -8.02703532 20.28112871 -8.02444077 17.32498169 C-8.02377165 15.90235384 -8.02459937 14.4797245 -8.02692032 13.05709839 C-8.02944774 11.0720828 -8.02491542 9.08706195 -8.02001953 7.10205078 C-8.01922394 5.97033447 -8.01842834 4.83861816 -8.01760864 3.67260742 C-7.76407328 -1.4051679 -4.3697915 0.00265516 0 0 Z " fill="#262B32" transform="translate(7.890625,-0.12939453125)"/>
<path d="M0 0 C0.69771011 0.00359528 1.39542023 0.00719055 2.11427307 0.01089478 C3.2117688 0.01067574 3.2117688 0.01067574 4.33143616 0.01045227 C6.76094989 0.0111515 9.19038789 0.01894432 11.61988831 0.02676392 C13.29997719 0.02862806 14.98006662 0.03005198 16.66015625 0.03105164 C21.09071849 0.03487709 25.52124815 0.04470761 29.95179749 0.05575562 C35.2631386 0.06776362 40.57449058 0.07237184 45.88584137 0.07820892 C53.96257762 0.08791936 62.03924233 0.1070757 70.11598206 0.12442017 C70.11598206 24.21442017 70.11598206 48.30442017 70.11598206 73.12442017 C65.10204935 74.37790334 64.27406747 73.44692409 59.94410706 70.85488892 C59.0509227 70.32662506 59.0509227 70.32662506 58.13969421 69.78768921 C56.20782916 68.64085921 54.28708771 67.47666692 52.36598206 66.31192017 C51.04837923 65.52584914 49.73018119 64.74077496 48.41139221 63.95669556 C40.72832762 59.37401212 33.07619293 54.72946516 25.59742737 49.81851196 C22.15727634 47.58249993 22.15727634 47.58249993 18.11598206 47.12442017 C18.06699768 48.32840454 18.01801331 49.53238892 17.96754456 50.77285767 C17.89251863 52.34840214 17.81697072 53.92392183 17.74098206 55.49942017 C17.69457581 56.69051392 17.69457581 56.69051392 17.64723206 57.90567017 C17.34254456 63.89785767 17.34254456 63.89785767 15.11598206 66.12442017 C13.17652893 66.38320923 13.17652893 66.38320923 10.83473206 66.39004517 C9.99297424 66.39262329 9.15121643 66.39520142 8.28395081 66.39785767 C7.40352112 66.39012329 6.52309143 66.38238892 5.61598206 66.37442017 C4.73555237 66.38215454 3.85512268 66.38988892 2.94801331 66.39785767 C2.10625549 66.39527954 1.26449768 66.39270142 0.39723206 66.39004517 C-0.37556091 66.38778931 -1.14835388 66.38553345 -1.94456482 66.38320923 C-3.88401794 66.12442017 -3.88401794 66.12442017 -5.88401794 64.12442017 C-6.1312561 61.49891663 -6.1312561 61.49891663 -6.12693787 58.1300354 C-6.1300145 56.87210678 -6.13309113 55.61417816 -6.13626099 54.31813049 C-6.12936377 52.93975645 -6.12209684 51.56138421 -6.11448669 50.18301392 C-6.11329499 48.77579287 -6.11284171 47.36857102 -6.11309814 45.96134949 C-6.11153307 43.01150538 -6.10324093 40.06178259 -6.08982849 37.11196899 C-6.07282299 33.32310188 -6.06901457 29.53436799 -6.06977367 25.74546719 C-6.06950231 22.83992735 -6.06402687 19.93441689 -6.05677223 17.0288868 C-6.05358129 15.63138107 -6.05161717 14.23387201 -6.05087852 12.83636284 C-6.04872037 10.88736659 -6.03919107 8.93838265 -6.02928162 6.9894104 C-6.02546982 5.87847519 -6.02165802 4.76753998 -6.01773071 3.62294006 C-5.78276839 -0.76750113 -3.92079164 0.00852224 0 0 Z " fill="#262B32" transform="translate(101.88401794433594,-0.124420166015625)"/>
<path d="M0 0 C0.69919052 -0.00335861 1.39838104 -0.00671722 2.11875916 -0.01017761 C4.44125115 -0.01971426 6.76367126 -0.02163208 9.08618164 -0.02270508 C10.69421926 -0.0259158 12.30225659 -0.02927972 13.91029358 -0.03279114 C17.28558022 -0.03878922 20.66084122 -0.04063035 24.03613281 -0.04003906 C28.36865089 -0.03993741 32.70100522 -0.05359016 37.03348446 -0.07081127 C40.35596985 -0.08191084 43.6784154 -0.0839589 47.00091743 -0.08342934 C48.5985629 -0.08461252 50.19620929 -0.08905315 51.79383659 -0.0967617 C54.02543595 -0.10652055 56.25667655 -0.10370005 58.48828125 -0.09765625 C60.39570351 -0.09979378 60.39570351 -0.09979378 62.34165955 -0.10197449 C65.30883789 0.14526367 65.30883789 0.14526367 67.30883789 2.14526367 C67.55607605 4.77076721 67.55607605 4.77076721 67.55175781 8.13964844 C67.55637276 10.02654137 67.55637276 10.02654137 67.56108093 11.95155334 C67.55418371 13.32992739 67.54691678 14.70829963 67.53930664 16.08666992 C67.53811493 17.49389097 67.53766166 18.90111282 67.53791809 20.30833435 C67.53635302 23.25817846 67.52806088 26.20790125 67.51464844 29.15771484 C67.49764293 32.94658196 67.49383452 36.73531585 67.49459362 40.52421665 C67.49432226 43.42975648 67.48884682 46.33526695 67.48159218 49.24079704 C67.47840123 50.63830277 67.47643711 52.03581183 67.47569847 53.433321 C67.47354031 55.38231725 67.46401102 57.33130119 67.45410156 59.28027344 C67.45028976 60.39120865 67.44647797 61.50214386 67.44255066 62.64674377 C67.30883789 65.14526367 67.30883789 65.14526367 66.30883789 66.14526367 C57.82125766 66.82011715 50.31238437 65.96534353 42.30883789 63.14526367 C41.35364258 62.81655273 40.39844727 62.4878418 39.41430664 62.14916992 C19.38153855 54.561398 5.52177633 39.63936834 -3.62475586 20.62182617 C-6.38282377 14.21664281 -8.28745471 8.15170167 -7.69116211 1.14526367 C-5.80169388 -0.74420456 -2.51049653 0.00753019 0 0 Z " fill="#262B32" transform="translate(8.691162109375,117.854736328125)"/>
<path d="M0 0 C0.53625 0.23460938 1.0725 0.46921875 1.625 0.7109375 C2.77895867 17.92415431 -3.06458825 34.64570244 -14.40478516 47.61938477 C-16.65487476 50.06342069 -19.00003041 52.38744846 -21.375 54.7109375 C-22.08140625 55.44957031 -22.7878125 56.18820313 -23.515625 56.94921875 C-34.46520591 67.71073434 -51.87122635 74.8704483 -67.125 74.8359375 C-68.27484375 74.83851563 -69.4246875 74.84109375 -70.609375 74.84375 C-73.375 74.7109375 -73.375 74.7109375 -74.375 73.7109375 C-74.47950769 71.75813566 -74.51355374 69.80153205 -74.52026367 67.84594727 C-74.52664352 66.59117081 -74.53302338 65.33639435 -74.53959656 64.04359436 C-74.54112512 62.66317788 -74.54223914 61.28276088 -74.54296875 59.90234375 C-74.54617967 58.49608831 -74.54954362 57.08983321 -74.55305481 55.68357849 C-74.55905232 52.73199692 -74.56089408 49.78044466 -74.56030273 46.82885742 C-74.56020109 43.04113704 -74.57385285 39.25360403 -74.59107494 35.46592808 C-74.60217742 32.56034985 -74.60422248 29.65481717 -74.60369301 26.74921989 C-74.6048758 25.35253186 -74.60931421 23.95584274 -74.61702538 22.55917549 C-74.62678925 20.60791549 -74.62269234 18.65660086 -74.61791992 16.70532227 C-74.61934494 15.59359146 -74.62076996 14.48186066 -74.62223816 13.33644104 C-74.375 10.7109375 -74.375 10.7109375 -72.375 8.7109375 C-70.43554688 8.45214844 -70.43554688 8.45214844 -68.09375 8.4453125 C-67.25199219 8.44273438 -66.41023438 8.44015625 -65.54296875 8.4375 C-64.22232422 8.44910156 -64.22232422 8.44910156 -62.875 8.4609375 C-61.99457031 8.45320313 -61.11414063 8.44546875 -60.20703125 8.4375 C-59.36527344 8.44007812 -58.52351563 8.44265625 -57.65625 8.4453125 C-56.49706055 8.44869629 -56.49706055 8.44869629 -55.31445312 8.45214844 C-53.375 8.7109375 -53.375 8.7109375 -51.375 10.7109375 C-51.0686141 13.44528712 -50.8636664 16.09373571 -50.75 18.8359375 C-50.71132812 19.59003906 -50.67265625 20.34414062 -50.6328125 21.12109375 C-50.53848969 22.98396934 -50.45565338 24.84742005 -50.375 26.7109375 C-45.99853189 26.1302313 -43.02621638 24.52024086 -39.2890625 22.2109375 C-38.71457367 21.85881195 -38.14008484 21.5066864 -37.54818726 21.14389038 C-36.32519349 20.39304434 -35.10426062 19.63883266 -33.88525391 18.88153076 C-31.99187552 17.70589284 -30.09260927 16.54037638 -28.19140625 15.37744141 C-22.88790342 12.12975628 -17.60001542 8.85818545 -12.3359375 5.546875 C-11.30218994 4.90492187 -11.30218994 4.90492187 -10.24755859 4.25 C-8.51284316 3.17162671 -6.7872506 2.07861536 -5.0625 0.984375 C-2.375 -0.2890625 -2.375 -0.2890625 0 0 Z " fill="#262B32" transform="translate(170.375,109.2890625)"/>
<path d="M0 0 C18.48 0 36.96 0 56 0 C56.020625 8.394375 56.04125 16.78875 56.0625 25.4375 C56.071604 28.09095459 56.08070801 30.74440918 56.09008789 33.47827148 C56.09300686 35.56754506 56.09555546 37.65681919 56.09765625 39.74609375 C56.10277222 40.84215942 56.10788818 41.9382251 56.11315918 43.06750488 C56.11334045 44.62048279 56.11334045 44.62048279 56.11352539 46.20483398 C56.115746 47.10862289 56.11796661 48.0124118 56.12025452 48.94358826 C56 51 56 51 55 52 C53.28134591 52.0935919 51.55884256 52.11744611 49.83764648 52.11352539 C48.73658066 52.11344986 47.63551483 52.11337433 46.50108337 52.11329651 C45.3031868 52.10813522 44.10529022 52.10297394 42.87109375 52.09765625 C41.65172623 52.0962413 40.4323587 52.09482635 39.17604065 52.09336853 C35.2631693 52.08774967 31.35035419 52.07519396 27.4375 52.0625 C24.79231853 52.05748743 22.14713617 52.0529241 19.50195312 52.04882812 C13.00126274 52.03862296 6.50069467 52.01905121 0 52 C0 34.84 0 17.68 0 0 Z " fill="#262B32" transform="translate(1290,132)"/>
</svg>
